<svg xmlns="http://www.w3.org/2000/svg" viewBox="0 0 192 192">
  <rect width="192" height="192" rx="32" fill="#080600"/>
  <path fill="#F2A800" d="M96 22c-1 0-2 1-2 2C88 38 78 54 80 68c1 8 5 14 9 18-1-6 0-13 3-18 0 0 0 1 0 1-2 12 2 24 10 32-1-8 1-16 5-22 0 0 0 0 0 0 4 8 5 18 2 26 6-6 10-14 11-23 3-16-4-32-14-46-1-1-2-2-3-2-1 0-2 0-3 0-3-4-7-12-4-22 0 0 0-1 0-2-1-5-1-8 0-10 0-1-1-2-2-2z"/>
  <path fill="#F2A800" d="M96 24c0 0-20 28-14 54 2 9 7 17 13 22-4-8-4-18 0-26 2 10 8 20 16 26-2-8-1-17 3-24 5 10 5 22 0 32 10-10 14-26 10-42-2-8-7-16-13-20 4 6 5 14 3 20-4-8-8-16-8-26 0-7 3-14 3-16 0 0-5 8-13 0z"/>
  <ellipse cx="96" cy="150" rx="22" ry="9" fill="#FFD060" opacity="0.5"/>
</svg>
