<!-- Maskable icon: safe zone is inner 80% — icon centered with padding -->
<svg xmlns="http://www.w3.org/2000/svg" viewBox="0 0 192 192">
  <rect width="192" height="192" fill="#080600"/>
  <path fill="#F2A800" d="M96 38c-1 0-2 1-2 2-6 12-14 26-12 38 1 7 4 12 8 16-1-5 0-11 3-16 0 0 0 1 0 1-2 10 2 20 9 27-1-7 0-14 4-19 3 7 4 16 2 23 5-5 9-13 10-21 2-14-4-28-13-40-1-1-2-2-3-2z"/>
  <path fill="#F2A800" d="M96 40c0 0-17 24-12 46 2 8 6 15 11 19-3-7-3-15 0-22 2 9 7 17 14 22-2-7-1-15 3-21 4 9 4 19 0 28 9-9 12-22 9-36-2-7-6-14-11-18 3 5 4 12 3 18-4-8-7-14-7-23 0-6 2-12 2-13 0 0-5 6-12 0z"/>
  <ellipse cx="96" cy="146" rx="18" ry="7" fill="#FFD060" opacity="0.5"/>
</svg>
